<svg viewBox="0 0 70 70" fill="none" xmlns="http://www.w3.org/2000/svg">
<path d="M66.0909 17.3054V36.8576L36.0605 70V30.5159H55.841L45.1005 43.021V38.3222H42.9524V51.9641L59.0856 33.3206V25.2881H36.0605V17.3054H66.0909Z" />
<path d="M3.80566 17.3054V36.8576L33.836 70V30.5159H14.0555L24.796 43.021V38.3222H26.9441V51.9641L10.8109 33.3206V25.2881H33.836V17.3054H3.80566Z" />
<path d="M35.0037 8.94114H15.407C14.5014 8.81088 13.6079 8.60958 12.7351 8.33917C11.9235 8.08772 11.1381 7.76098 10.3896 7.36338C9.50613 6.8151 8.62201 6.24956 7.73723 5.66677C4.85226 3.7497 2.28979 1.85371 0.0107422 0.00756836C1.43564 1.73294 3.07945 3.56183 4.97344 5.45206C6.49802 6.9723 8.03628 8.3871 9.555 9.69646C10.3383 10.2246 11.1937 10.6415 12.096 10.9349C13.1474 11.282 14.2361 11.5091 15.3406 11.6116H35.0037" />
<path d="M35.0029 8.94117H54.6055C55.5111 8.81092 56.4046 8.60962 57.2774 8.33921C58.0891 8.08776 58.8745 7.76102 59.6229 7.36342C60.5025 6.81514 61.384 6.24833 62.2675 5.66298C65.1525 3.74591 67.7149 1.84992 69.994 0.00378418C68.5691 1.72915 66.9253 3.55803 65.0313 5.44827C63.5067 6.96851 61.9684 8.38331 60.4497 9.69267C59.6664 10.2208 58.811 10.6377 57.9088 10.9311C56.8573 11.2782 55.7686 11.5053 54.6641 11.6078H35.0029" />
<path d="M0.00983923 0.00380716C-0.162165 0.122666 1.96443 2.56502 2.98863 5.82021C3.37955 7.05672 3.70401 8.57313 5.04877 10.5343C5.56175 11.2755 6.1364 11.9738 6.76685 12.622C7.74418 13.2737 8.80576 13.7946 9.92351 14.171C11.1486 14.5901 12.4169 14.8762 13.7056 15.0241H35.0107V11.6098L14.163 11.4487C12.6403 11.2083 11.1798 10.6796 9.86292 9.89207C9.31563 9.44539 8.59635 8.84535 7.77542 8.11303C7.05222 7.46697 5.8697 6.38766 4.49171 4.95752C1.61651 1.99373 0.162297 -0.101632 0.00983923 0.00380716Z" />
<path d="M69.99 0.00380716C70.164 0.122666 68.0355 2.56502 67.0113 5.82021C66.6203 7.05672 66.2959 8.57313 64.9511 10.5343C64.4388 11.2759 63.8641 11.9743 63.233 12.622C62.2566 13.2739 61.1956 13.7949 60.0783 14.171C58.8539 14.5903 57.5863 14.8764 56.2982 15.0241H34.9932V11.6098L55.8427 11.4487C57.3657 11.209 58.8263 10.6802 60.1428 9.89207C60.6901 9.44539 61.4094 8.84535 62.2303 8.11303C62.9555 7.46697 64.138 6.38766 65.516 4.95752C68.3834 1.99373 69.8395 -0.101632 69.99 0.00380716Z" />
</svg>
