<svg  viewBox="0 0 134 14" xmlns="http://www.w3.org/2000/svg">
<path d="M8.70131 1.92212V2.32061H9.22569V3.10589H3.69374V5.1218H4.26998V5.87775H3.69374V7.37213H3.08292V7.56549H3.69374V10.396H6.21193V7.55379H5.57229V7.3604H6.21193V6.29384H9.2545V7.33697H8.64369V7.53033H9.2545V11.6676H9.77889V12.74H9.2545V13.9472H6.21193V13.4667H3.69374C2.98409 13.4653 2.29797 13.2078 1.75755 12.74H2.2416C1.8949 12.4449 1.61232 12.0797 1.4118 11.6676H0.916228C0.716635 11.266 0.612053 10.8225 0.610819 10.3725V7.53033H0V7.33697H0.610819V5.84259H1.18706V5.1218H0.610819V3.12349C0.615028 2.85587 0.661733 2.59068 0.749121 2.33821H0.224735C0.244731 2.20125 0.281514 2.06738 0.334224 1.93972H0.858609C0.981956 1.64276 1.1512 1.36776 1.35994 1.12515H2.05143L2.21278 0.955214H1.49824C1.78119 0.655867 2.12019 0.417142 2.49527 0.253093C2.87035 0.0890429 3.27392 0.00298294 3.68221 0H9.21417V0.955214H9.93448V1.12515H9.21417V1.93972L8.70131 1.92212Z" />
<path d="M20.7854 12.8103L20.9813 13.5429H17.8004L17.6045 12.8103H18.1058L17.8292 11.7438H17.2991V11.6031H14.3429V11.7438H14.8443L14.5677 12.8103H14.0375L13.8474 13.5429H10.6953L10.8567 12.8103H11.3868L11.6634 11.7438H11.1621L12.2685 7.6065H11.6346L11.6865 7.40727H12.2973L12.7122 5.91876H13.2884L13.5074 5.15695H12.9311L13.6745 2.37336H13.1501L13.2596 1.98074H13.784L14.0087 1.16616H14.7002L14.7521 0.966899H14.0375L14.2853 0.0410156H17.4662L17.714 0.966899H18.3767V1.16616H17.6852L17.8753 1.98074H17.3798L17.4604 2.37336H17.9848L18.7339 5.15695H19.3102L19.5061 5.91876H18.9299L19.3448 7.40727H18.7051L18.7628 7.6065H19.3966L20.48 11.7438H21.0043L21.2809 12.8103H20.7854ZM16.4462 8.47966L16.2215 7.6065H15.5876L15.53 7.40727H16.1696L15.8066 6.03011L15.4205 7.40727H14.8097L14.7578 7.6065H15.3629L15.1439 8.47966H16.4462Z" />
<path d="M35.8594 1.98074V2.37336H36.3896V5.15695H36.9658V5.91876H36.3896V7.40727H35.75V7.6065H36.3896V11.7438H36.8852V12.8103H36.3896V13.5429H33.3182V12.8103H33.8426V11.7438H33.3182V7.6065H32.6786V7.40727H33.3182V5.91876H33.2894L32.3501 7.40727H31.7105L31.601 7.6065H32.206L31.6298 8.6379L30.4773 10.2787H28.9848L27.2561 7.6065H26.6222L26.4839 7.40727H27.1178L26.1497 5.91876H25.9884V7.40727H25.3487V7.6065H25.9884V11.7438H26.4839V12.8103H25.9884V13.5429H22.917V12.8103H23.4125V11.7438H22.917V7.6065H22.2773V7.40727H22.917V5.91876H23.4932V5.15695H22.917V2.37336H22.4099V1.98074H22.9343V1.16616H23.6546V0.966899H22.9343V0.0410156H26.0057L26.5819 0.966899H27.3022L27.4117 1.16616H26.6914L27.2215 1.98074H26.7202L26.968 2.37336H27.4981L29.296 5.15695H30.1258L31.8545 2.37336H31.3302L31.5779 1.98074H32.1023L32.6037 1.16616H33.2952L33.4335 0.966899H32.7131L33.2894 0.0703094H36.3608V0.996229H37.0523V1.19545H36.3608V2.01003L35.8594 1.98074Z" />
<path d="M42.4465 1.98074V2.37336H42.9709V5.15695H43.5471V5.91876H42.9709V7.40727H42.3313V7.6065H42.9709V11.7438H43.4665V12.8103H42.9709V13.5429H39.8995V12.8103H40.3951V11.7438H39.8995V7.6065H39.2656V7.40727H39.8995V5.91876H40.4757V5.15695H39.8995V2.37336H39.3751V1.98074H39.8995V1.16616H40.6198V0.966899H39.8995V0.0410156H42.9709V0.966899H43.6624V1.16616H42.9709V1.98074H42.4465Z" />
<path d="M55.4981 1.98074V2.37336H55.9994V5.15695H56.5757V5.91876H55.9994V7.40727H55.3886V7.6065H55.9994V11.7438H56.5238V12.8103H55.9994V13.5429H52.9511V12.8103H53.4755V11.7438H52.9511V11.4332L50.6461 7.6065H50.0065L49.8682 7.40727H48.9174V7.6065H49.5512V11.7438H50.0699V12.8103H49.5685V13.5429H46.4971V12.8103H46.9985V11.7438H46.4971V7.6065H45.8633V7.40727H46.4971V5.91876H47.0734V5.15695H46.4971V2.37336H45.9728V1.98074H46.4971V1.16616H47.1886V0.966899H46.4683V0.0410156H49.5397L50.116 0.966899H50.8075L50.9458 1.16616H50.2427L50.7441 1.98074H50.2139L50.4675 2.37336H50.963L52.6918 5.15695H52.9511V2.37336H52.4498V1.98074H52.9511V1.16616H53.6714V0.966899H52.9511V0.0410156H56.0225V0.966899H56.737V1.16616H56.0225V1.98074H55.4981Z" />
<path d="M66.7813 1.98076V2.37339H67.2768V3.1645H61.7737V5.15698H62.3499V5.9188H61.7737V7.40731H61.1341V7.60653H61.7737V10.396H64.2631V7.58311H63.6234V7.38384H64.2631V6.34661H67.3575V7.38384H66.7179V7.58311H67.3575V11.7204H67.8531V12.787H67.3575V14H64.2861V13.5195H61.7968C61.0781 13.5138 60.3837 13.255 59.8318 12.787H60.3561C60.0002 12.5035 59.7157 12.1379 59.5263 11.7204H59.002C58.8185 11.3034 58.7205 10.8528 58.7138 10.396V7.58311H58.0742V7.38384H58.7138V5.89537H59.2901V5.13355H58.7138V3.14107C58.7199 2.87393 58.7567 2.60844 58.8233 2.34996H58.2989C58.3379 2.21658 58.384 2.08548 58.4372 1.9573H58.9328C59.0656 1.66543 59.234 1.39178 59.4341 1.14276H60.1487C60.213 1.08431 60.2692 1.01727 60.3158 0.943498H59.5955C60.1759 0.351934 60.9635 0.0188939 61.7852 0.0175781H67.2884V0.943498H68.0087V1.14276H67.2884V1.9573L66.7813 1.98076Z" />
<path d="M78.6808 1.92212V2.32061H79.2052V3.10589H73.6963V5.1218H74.2725V5.87775H73.6963V7.37213H73.0624V7.56549H73.6963V10.396H76.2145V7.55379H75.5748V7.3604H76.2145V6.29384H79.257V7.33697H78.6462V7.53033H79.257V11.6676H79.7814V12.74H79.257V13.9472H76.2145V13.4667H73.6963C72.9787 13.4709 72.2835 13.213 71.7371 12.74H72.2326C71.8836 12.4512 71.5972 12.0921 71.3913 11.6852H70.8957C70.6961 11.2836 70.5915 10.8401 70.5903 10.3901V7.54793H69.9795V7.35453H70.5903V5.86019H71.1666V5.1218H70.5903V3.12349C70.5945 2.85587 70.6412 2.59068 70.7286 2.33821H70.2388C70.2561 2.20068 70.293 2.06645 70.3483 1.93972H70.8727C70.9961 1.64412 71.1632 1.36942 71.3682 1.12515H72.0597L72.2269 0.955214H71.5123C71.7953 0.655867 72.1343 0.417142 72.5093 0.253093C72.8844 0.0890429 73.288 0.00298294 73.6963 0H79.2282V0.955214H79.9485V1.12515H79.2282V1.93972L78.6808 1.92212Z" />
<path d="M89.0763 11.7438V12.8103H88.5519V13.5429H82V12.8103H82.4956V11.7438H82V7.6065H81.3604V7.40727H82V5.91876H82.5762V5.15695H82V2.37336H81.4698V1.98074H82V1.16616H82.7145V0.966899H82V0.0410156H85.0656V0.966899H85.7571V1.16616H85.0656V1.98074H84.5412V2.37336H85.0656V5.15695H85.6419V5.91876H85.0656V7.40727H84.4318V7.6065H85.0656V10.396H88.5231V11.7204L89.0763 11.7438Z" />
<path d="M101.638 5.91877C101.638 6.20005 101.638 6.45206 101.638 6.70405C101.65 6.93829 101.65 7.17303 101.638 7.40728H100.998C101.005 7.47509 100.995 7.54355 100.97 7.6065H101.609C101.437 9.17681 100.737 10.6384 99.6269 11.7438H100.151C99.7052 12.1818 99.1912 12.5422 98.63 12.8104H98.1344C97.386 13.1901 96.5621 13.3905 95.7257 13.3964C94.8821 13.39 94.0508 13.1896 93.294 12.8104H93.8184C93.262 12.5336 92.7493 12.1741 92.2971 11.7438H91.8015C90.6852 10.6416 89.9803 9.17903 89.8077 7.6065H89.1738C89.1738 7.5479 89.1738 7.49518 89.1738 7.40728H89.8077C89.783 7.17376 89.7734 6.93884 89.7789 6.70405C89.7746 6.44195 89.7842 6.1798 89.8077 5.91877H90.3839C90.4166 5.66249 90.4628 5.40819 90.5223 5.15695H89.946C90.1543 4.1418 90.5901 3.18922 91.2195 2.37336H90.7239C90.8075 2.23038 90.9081 2.0985 91.0236 1.98074H91.5537C91.8208 1.68068 92.1161 1.40785 92.4354 1.16616H93.1269C93.2357 1.11168 93.3382 1.04482 93.4323 0.9669H92.712C93.6155 0.362788 94.6732 0.0409378 95.7545 0.0410159C96.8287 0.0406988 97.8791 0.362763 98.7741 0.9669H99.4886C99.5748 1.04158 99.6673 1.10828 99.7652 1.16616H99.0507C99.3699 1.40785 99.6652 1.68068 99.9323 1.98074H99.4079C99.5174 2.09208 99.6269 2.23271 99.7422 2.37336H100.203C100.83 3.19065 101.266 4.14266 101.477 5.15695H102.053C102.105 5.40856 102.143 5.66287 102.168 5.91877H101.638ZM98.5378 5.91877H99.114C99.0548 5.66094 98.9817 5.40662 98.8951 5.15695H98.3188C98.1654 4.57689 97.8282 4.06445 97.3594 3.69902C96.8906 3.33359 96.3164 3.13553 95.7257 3.13553C95.1351 3.13553 94.5609 3.33359 94.0921 3.69902C93.6233 4.06445 93.2861 4.57689 93.1326 5.15695H93.7089C93.5972 5.40011 93.514 5.65581 93.4611 5.91877H92.8848C92.8513 6.17923 92.8321 6.44141 92.8272 6.70405C92.8163 6.94 92.8356 7.17642 92.8848 7.40728H92.251C92.2508 7.47717 92.2687 7.54586 92.3028 7.6065H92.9137C93.2421 9.12429 94.3773 10.2787 95.7315 10.2787C97.0857 10.2787 98.1978 9.10671 98.5263 7.6065H97.8982C97.9218 7.54194 97.9391 7.47524 97.95 7.40728H98.5609C98.6101 7.17642 98.6295 6.94 98.6185 6.70405C98.606 6.44097 98.579 6.17879 98.5378 5.91877Z" />
<path d="M113.457 5.9188C113.329 6.1812 113.17 6.42712 112.985 6.65132C113.184 6.87944 113.353 7.13371 113.486 7.40731H112.881C112.924 7.47097 112.962 7.53752 112.996 7.60653H113.63C113.821 8.08869 113.915 8.60473 113.907 9.12434C113.93 10.0588 113.659 10.9764 113.135 11.7438H113.63C113.521 11.9005 113.402 12.0493 113.273 12.1892C113.017 12.4369 112.728 12.646 112.414 12.8104H111.913C110.815 13.3608 109.597 13.6132 108.375 13.5429H104.18V12.8104H104.675V11.7438H104.18V7.60653H103.546V7.40731H104.18V5.9188H104.756V5.15698H104.18V2.37339H103.661V1.98076H104.186V1.16619H104.906V0.966928H104.18V0.0410437H107.47C108.772 0.0117427 110.847 0.011717 112.311 0.966928H113.031C113.112 1.0259 113.187 1.09264 113.256 1.16619H112.564C112.668 1.26673 112.778 1.36066 112.893 1.44747C113.055 1.60443 113.195 1.78399 113.307 1.98076H112.812C112.892 2.10238 112.956 2.23443 113.002 2.37339H113.532C113.766 2.87542 113.888 3.42365 113.89 3.97907C113.888 4.37387 113.842 4.76718 113.751 5.15111H114.327C114.246 5.41294 114.144 5.66769 114.022 5.91293L113.457 5.9188ZM110.83 3.97907C110.83 3.75053 110.772 3.6978 110.72 3.6685C110.196 3.13523 108.283 3.1352 107.482 3.1645H107.234V5.01634H107.453C107.954 5.01634 108.536 5.01632 109.182 5.07493C109.694 5.07533 110.194 4.91804 110.616 4.62372C110.709 4.59442 110.847 4.45375 110.847 3.97907H110.83ZM110.801 9.12434C110.801 8.81375 110.72 8.73169 110.663 8.67309C110.226 8.36034 109.704 8.19437 109.17 8.19842C108.893 8.19842 108.594 8.19842 108.34 8.19842C108.11 8.21417 107.879 8.21417 107.649 8.19842H107.234V10.396H107.706C108.588 10.4253 110.057 10.4546 110.588 9.94474C110.651 9.91544 110.818 9.71622 110.818 9.12434H110.801Z" />
<path d="M124.786 12.8103L124.982 13.5429H121.801L121.605 12.8103H122.101L121.824 11.7438H121.294V11.6031H118.332L118.303 11.7438H118.804L118.528 12.8103H117.998L117.808 13.5429H114.609L114.776 12.8103H115.307L115.577 11.7438H115.082L116.188 7.6065H115.554L115.606 7.40727H116.217L116.632 5.91876H117.208L117.427 5.15695H116.851L117.6 2.37336H117.076L117.185 1.98074H117.71L117.934 1.16616H118.643L118.695 0.966899H117.952L118.205 0.0410156H121.386L121.634 0.966899H122.354L122.383 1.16616H121.691L121.882 1.98074H121.386L121.467 2.37336H121.991L122.74 5.15695H123.316L123.507 5.91876H122.93L123.345 7.40727H122.706L122.763 7.6065H123.397L124.475 11.7438H125.005L125.281 12.8103H124.786ZM120.441 8.47966L120.222 7.6065H119.588L119.531 7.40727H120.17L119.807 6.03011L119.421 7.40727H118.81L118.758 7.6065H119.363L119.144 8.47966H120.441Z" />
<path d="M134 11.7438V12.8103H133.47V13.5429H126.918V12.8103H127.414V11.7438H126.918V7.6065H126.278V7.40727H126.918V5.91876H127.494V5.15695H126.918V2.37336H126.388V1.98074H126.918V1.16616H127.632V0.966899H126.918V0.0410156H129.984V0.966899H130.675V1.16616H129.984V1.98074H129.459V2.37336H129.984V5.15695H130.56V5.91876H129.984V7.40727H129.35V7.6065H129.984V10.396H133.47V11.7204L134 11.7438Z" />
</svg>
